Coordinates
version=1
nRows=14
nColumns=24
inDegrees=yes

Units are S.I. units (second, meters, Newtons, ...)
Angles are in degrees.

endheader
time	pelvis_tilt	pelvis_list	pelvis_rotation	pelvis_tx	pelvis_ty	pelvis_tz	hip_flexion_r	hip_adduction_r	hip_rotation_r	knee_angle_r	ankle_angle_r	subtalar_angle_r	mtp_angle_r	hip_flexion_l	hip_adduction_l	hip_rotation_l	knee_angle_l	ankle_angle_l	subtalar_angle_l	mtp_angle_l	lumbar_extension	lumbar_bending	lumbar_rotation
      5.22500000	     36.38906815	     -3.97913077	     -3.04887276	     -0.21664804	      0.64461073	     -0.26063950	    -58.58939880	      2.33199079	     -3.97474685	     -9.33248535	     22.89657364	     16.07553404	      0.00000000	    -12.50501088	     -1.00010926	    -11.16871050	      0.81045859	      4.26516204	     11.35823813	      0.00000000	    -62.10032889	      0.50083396	     10.70016332
      5.23000000	     36.47743935	     -3.80429246	     -3.30711432	     -0.20958748	      0.64416440	     -0.26074931	    -58.91250397	      1.84797485	     -3.86979105	    -10.12678191	     22.23634383	     16.08993257	      0.00000000	    -12.40215016	     -0.75323341	    -11.19050681	     -0.24546321	      4.12493828	     11.23445596	      0.00000000	    -62.06381529	      0.12763116	     10.73831128
      5.23500000	     36.68699688	     -3.58487908	     -3.63623461	     -0.20253580	      0.64385784	     -0.26078821	    -59.31614993	      1.26720674	     -3.77829763	    -10.99027641	     21.54861083	     16.08851885	      0.00000000	    -12.41622154	     -0.43578574	    -11.17918044	     -1.45120513	      3.83177858	     10.84163262	      0.00000000	    -62.15381717	     -0.34464636	     10.77376911
      5.24000000	     36.90977170	     -3.33504270	     -3.92977761	     -0.19543330	      0.64360773	     -0.26086093	    -59.67490118	      0.69346860	     -3.78679794	    -11.95722548	     20.72630243	     16.12098723	      0.00000000	    -12.41147407	     -0.09320701	    -11.16551678	     -2.80548654	      3.55180198	     10.45654899	      0.00000000	    -62.24682549	     -0.80576186	     10.75524239
      5.24500000	     37.13654795	     -3.05893321	     -4.20168856	     -0.18829905	      0.64341926	     -0.26093143	    -59.97223410	      0.12546378	     -3.84839773	    -13.02859800	     19.79383860	     16.14062883	      0.00000000	    -12.38070470	      0.27145194	    -11.11851470	     -4.29171033	      3.24597560	      9.99541145	      0.00000000	    -62.34203139	     -1.27153399	     10.69991705
      5.25000000	     37.36515493	     -2.76714556	     -4.44888299	     -0.18113461	      0.64329206	     -0.26101484	    -60.20549519	     -0.43020914	     -3.96339649	    -14.20100084	     18.72891933	     16.14370457	      0.00000000	    -12.32896348	      0.65098156	    -11.02518157	     -5.88010658	      2.92647748	      9.44858767	      0.00000000	    -62.43259024	     -1.73032787	     10.61768167
      5.25500000	     37.59136272	     -2.47174113	     -4.67917695	     -0.17394674	      0.64323132	     -0.26111769	    -60.36222553	     -0.97674320	     -4.14554285	    -15.48040548	     17.52563160	     16.12612047	      0.00000000	    -12.26222224	      1.03688989	    -10.87323933	     -7.54546398	      2.61591396	      8.84044064	      0.00000000	    -62.51920429	     -2.16842087	     10.51183512
      5.26000000	     37.81892265	     -2.15783131	     -4.86702842	     -0.16674667	      0.64322245	     -0.26126211	    -60.43852992	     -1.50167139	     -4.39738934	    -16.88174284	     16.17673093	     16.08250456	      0.00000000	    -12.19016797	      1.44609903	    -10.64162976	     -9.25623622	      2.34044856	      8.14641644	      0.00000000	    -62.60831730	     -2.58292736	     10.38324183
      5.26500000	     38.03723168	     -1.83009607	     -5.00059326	     -0.15953156	      0.64326107	     -0.26143056	    -60.42918030	     -1.98940897	     -4.71835383	    -18.38690602	     14.66191431	     16.01892780	      0.00000000	    -12.10723584	      1.86789718	    -10.34562248	    -10.99620674	      2.13005419	      7.40450312	      0.00000000	    -62.68705067	     -2.96781443	     10.22445353
      5.27000000	     38.24001696	     -1.50767577	     -5.10967170	     -0.15229180	      0.64336579	     -0.26162356	    -60.32575773	     -2.46154650	     -5.09780020	    -19.98125654	     12.95154439	     15.92830866	      0.00000000	    -12.02721894	      2.28966568	    -10.03668861	    -12.73652207	      2.00863475	      6.68386547	      0.00000000	    -62.74561403	     -3.32429925	     10.05732758
      5.27500000	     38.36306101	     -1.14356463	     -5.02644503	     -0.14507023	      0.64341800	     -0.26202379	    -60.06864164	     -2.81185271	     -5.72236275	    -21.67061334	     11.10303036	     15.84157458	      0.00000000	    -11.81732028	      2.72564697	     -9.43192938	    -14.54900468	      2.02954801	      5.90007213	      0.00000000	    -62.74214456	     -3.51073162	      9.65789657
      5.28000000	     38.57573121	     -0.85471697	     -5.16999086	     -0.13781767	      0.64368756	     -0.26224659	    -59.79076221	     -3.32892740	     -6.14001561	    -23.47380132	      9.03535617	     15.54020495	      0.00000000	    -11.85074865	      3.16306742	     -9.10894397	    -16.16066010	      2.10666484	      5.20557898	      0.00000000	    -62.80243808	     -3.85166453	      9.58305687
      5.28500000	     38.77008986	     -0.54672866	     -5.21670160	     -0.13059307	      0.64398955	     -0.26251859	    -59.42503911	     -3.78676523	     -6.66593194	    -25.33297003	      6.75945860	     15.19861901	      0.00000000	    -11.88735818	      3.60507687	     -8.73725130	    -17.73306895	      2.31221177	      4.52671559	      0.00000000	    -62.85497845	     -4.13998426	      9.43814488
      5.29000000	     38.84455972	     -0.21874444	     -5.02745653	     -0.12342444	      0.64421607	     -0.26308592	    -58.86406254	     -4.08367777	     -7.38672172	    -27.25986113	      4.31660220	     14.79146912	      0.00000000	    -11.76439751	      4.03209578	     -8.04140700	    -19.35076376	      2.72145029	      3.86175771	      0.00000000	    -62.81233284	     -4.18371404	      8.99948827
